<?xml version="1.0" standalone="no"?>
<!DOCTYPE svg PUBLIC "-//W3C//DTD SVG 20010904//EN"
 "http://www.w3.org/TR/2001/REC-SVG-20010904/DTD/svg10.dtd">
<svg version="1.0" xmlns="http://www.w3.org/2000/svg"
 width="40.000000px" height="40.000000px" viewBox="0 0 840.000000 859.000000"
 preserveAspectRatio="xMidYMid meet">

<g transform="translate(0.000000,859.000000) scale(0.100000,-0.100000)"
fill="#000000" stroke="none">
<path d="M7225 7336 c-56 -24 -177 -143 -2006 -1972 l-1946 -1946 -1010 1016
c-1138 1144 -1056 1072 -1208 1070 -134 -1 -130 3 -568 -433 -448 -446 -442
-438 -441 -586 0 -115 18 -150 138 -277 49 -51 720 -727 1490 -1502 1071
-1076 1413 -1414 1451 -1434 42 -23 63 -27 135 -27 163 0 -106 -254 2618 2469
2059 2058 2437 2439 2460 2486 23 48 27 67 27 145 -1 74 -5 98 -24 135 -15 30
-152 174 -410 433 -434 436 -436 438 -570 444 -64 3 -85 0 -136 -21z"/>
</g>
</svg>
