<?xml version="1.0" encoding="utf-8"?>
<!-- Generator: Adobe Illustrator 23.0.4, SVG Export Plug-In . SVG Version: 6.00 Build 0)  -->
<svg version="1.1" id="Layer_1" xmlns="http://www.w3.org/2000/svg" xmlns:xlink="http://www.w3.org/1999/xlink" x="0px" y="0px"
	 viewBox="0 0 244 162" style="enable-background:new 0 0 244 162;" xml:space="preserve">
<style type="text/css">
	.st0{fill:#3d3935;}
</style>
<g>
	<g>
		<polygon class="st0" points="0.16,78.57 28.02,78.57 28.02,41.75 41.42,78.57 70.24,78.57 70.24,0.3 42.38,0.3 42.38,32.59
			30.33,0.3 0.16,0.3 		"/>
		<g>
			<path class="st0" d="M113.81,55.72c0,3.86-0.96,5.59-3.95,5.59c-2.8,0-3.86-1.74-3.86-5.59V23.14c0-3.86,1.06-5.69,3.86-5.69
				c2.8,0,3.95,1.83,3.95,5.69V55.72z M125.47-0.18H93.56c-12.72,0-18.6,4.92-18.6,16.68v43.86c0,13.98,5.2,18.8,18.6,18.8h31.91
				c13.98,0,19.37-4.34,19.37-18.8V16.49C144.84,4.16,138.87-0.18,125.47-0.18"/>
		</g>
		<polygon class="st0" points="188.12,78.57 205.28,78.57 216.56,35.48 216.56,78.57 243.84,78.57 243.84,0.3 205.09,0.3
			196.7,32.78 188.22,0.3 149.57,0.3 149.57,78.57 176.75,78.57 176.75,35.48 		"/>
		<polygon class="st0" points="0.16,161.6 28.02,161.6 28.02,124.78 41.42,161.6 70.24,161.6 70.24,83.33 42.38,83.33 42.38,115.63
			30.33,83.33 0.16,83.33 		"/>
		<g>
			<path class="st0" d="M113.81,138.76c0,3.86-0.96,5.59-3.95,5.59c-2.8,0-3.86-1.74-3.86-5.59v-32.58c0-3.86,1.06-5.69,3.86-5.69
				c2.8,0,3.95,1.83,3.95,5.69V138.76z M125.47,82.85H93.56c-12.72,0-18.6,4.92-18.6,16.68v43.86c0,13.98,5.2,18.8,18.6,18.8h31.91
				c13.98,0,19.37-4.34,19.37-18.8V99.53C144.84,87.19,138.87,82.85,125.47,82.85"/>
		</g>
		<polygon class="st0" points="188.12,161.6 205.28,161.6 216.56,118.52 216.56,161.6 243.84,161.6 243.84,83.33 205.09,83.33
			196.7,115.82 188.22,83.33 149.57,83.33 149.57,161.6 176.75,161.6 176.75,118.52 		"/>
	</g>
</g>
</svg>
